<svg xmlns="http://www.w3.org/2000/svg" width="1315.097" height="1073.935" viewBox="0 0 1315.097 1073.935">
    <defs>
        <style>
            .cls-2{fill:#ebebeb}.cls-3{fill:#f0f0f0}.cls-4{fill:#e6e6e6}.cls-5{fill:#f5f5f5}.cls-6{fill:#e0e0e0}.cls-7{fill:#fafafa}.cls-18,.cls-21,.cls-8{fill:#fff}.cls-9{fill:#b65b52}.cls-10{fill:#407bff}.cls-11{fill:#b55b52}.cls-12{fill:#263238}.cls-14{opacity:.2}.cls-17{fill:#ffc3bd}.cls-18{opacity:.1}.cls-20,.cls-21{opacity:.5}.cls-22{fill:#ff8b7b}.cls-23{fill:#ff5652}
        </style>
    </defs>
    <g id="rafiki" opacity="0.095" transform="translate(-.073 -.36)">
        <path id="Path_16378" d="M1315.17 659.824H.073v.657h1315.1z" class="cls-2" transform="translate(0 243.088)"/>
        <path id="Path_16379" d="M156.677 678.119H100.89v.658h55.787z" class="cls-2" transform="translate(37.163 249.831)"/>
        <path id="Path_16380" d="M552.457 672.911H328.969v.659h223.488z" class="cls-2" transform="translate(121.236 247.912)"/>
        <path id="Path_16381" d="M230.357 695.973H130.121v.657h100.236z" class="cls-2" transform="translate(47.937 256.413)"/>
        <path id="Path_16382" d="M895.284 692.744h-113.6v.657h113.6z" class="cls-2" transform="translate(288.113 255.222)"/>
        <path id="Path_16383" d="M783.88 692.744H752.4v.657h31.48z" class="cls-2" transform="translate(277.318 255.222)"/>
        <path id="Path_16384" d="M729.14 684.634h-60.494v.657h60.494z" class="cls-2" transform="translate(246.445 252.233)"/>
        <path id="Path_16385" d="M680.745 684.634H553.338v.657h127.407z" class="cls-2" transform="translate(203.941 252.233)"/>
        <path id="Path_16386" d="M596.361 774.448H88.5a15.019 15.019 0 0 1-15-15.02V45.515a15.019 15.019 0 0 1 15-14.887h507.861a15.018 15.018 0 0 1 15.019 15.019v713.781a15.018 15.018 0 0 1-15.019 15.019zM88.5 31.155a14.361 14.361 0 0 0-14.338 14.36v713.913A14.361 14.361 0 0 0 88.5 773.789h507.861a14.388 14.388 0 0 0 14.361-14.361V45.515a14.387 14.387 0 0 0-14.361-14.361z" class="cls-2" transform="translate(27.068 11.157)"/>
        <path id="Path_16387" d="M1012.078 774.448h-507.89a15.044 15.044 0 0 1-15.018-15.019V45.515a15.044 15.044 0 0 1 15.018-14.887h507.89a15.018 15.018 0 0 1 14.966 14.887v713.913a15.019 15.019 0 0 1-14.966 15.019zM504.188 31.155a14.387 14.387 0 0 0-14.361 14.361v713.912a14.388 14.388 0 0 0 14.361 14.361h507.89a14.387 14.387 0 0 0 14.361-14.361V45.515a14.387 14.387 0 0 0-14.361-14.361z" class="cls-2" transform="translate(180.288 11.157)"/>
        <path id="Path_16388" d="M827.405 650.838h79.3v-18.227h-79.3z" class="cls-3" transform="translate(304.966 233.057)"/>
        <path id="Path_16389" d="M798.444 637.539h79.3v-18.227h-79.3z" class="cls-4" transform="translate(294.291 228.154)"/>
        <path id="Path_16390" d="M460.945 54.478h-79.3v18.227h79.3z" class="cls-5" transform="translate(140.653 19.949)"/>
        <path id="Path_16391" d="M253.68 632.611h-79.3v18.227h79.3z" class="cls-5" transform="translate(64.252 233.057)"/>
        <path id="Path_16392" d="M504.025 644.169h79.3v-18.227h-79.3z" class="cls-4" transform="translate(185.764 230.598)"/>
        <path id="Path_16393" d="M921.2 149.626h-79.3v18.227h79.3z" class="cls-3" transform="translate(310.308 55.021)"/>
        <path id="Path_16394" d="M202.2 55.823h-79.3v18.228h79.3z" class="cls-5" transform="translate(45.274 20.444)"/>
        <path id="Path_16395" d="M704.071.36h-79.3v18.228h79.3z" class="cls-5" transform="translate(230.272)"/>
        <path id="Path_16396" d="M173.214 42.505h-79.3v18.228h79.3z" class="cls-3" transform="translate(34.591 15.535)"/>
        <path id="Path_16397" d="M113.824 779.376h400.1V107.6c0-45.108-400.1-45.108-400.1 0z" class="cls-6" transform="translate(41.93 27.059)"/>
        <path id="Path_16398" d="M120.531 779.376h400.132V107.6c0-45.108-400.132-45.108-400.132 0z" class="cls-4" transform="translate(44.402 27.059)"/>
        <path id="Path_16399" d="M495.456 745.62V113.427a8.572 8.572 0 0 0-5.681-8.075c-22.2-7.891-82.693-17.07-174.513-17.07s-152.314 9.1-174.539 17.07a8.572 8.572 0 0 0-5.681 8.075V745.62a8.572 8.572 0 0 0 8.574 8.548h343.266a8.575 8.575 0 0 0 8.574-8.548z" class="cls-7" transform="translate(49.751 32.409)"/>
        <path id="Path_16400" d="M361.238 92.1l62.388 662.073H332.49L269.682 88.282c35.402 0 66.07 1.578 91.556 3.818z" class="cls-8" transform="translate(99.382 32.409)"/>
        <path id="Path_16401" d="M263.992 88.417l62.808 665.7h-50.446l-62.52-663.806c15.177-.921 32.009-1.578 50.158-1.894z" class="cls-8" transform="translate(78.795 32.459)"/>
        <path id="Path_16402" d="M227.878 763.836v-681.8h-17.465v681.8z" class="cls-4" transform="translate(77.534 30.107)"/>
        <path id="Path_16403" d="M330.712 763.836v-681.8h-17.463v681.8z" class="cls-4" transform="translate(115.441 30.107)"/>
        <path id="Path_16404" d="M130.352 257.684h377.327v-17.465H130.352z" class="cls-4" transform="translate(48.023 88.415)"/>
        <path id="Path_16405" d="M130.352 427.724h377.327V410.26H130.352z" class="cls-4" transform="translate(48.023 151.095)"/>
        <path id="Path_16406" d="M127.949 604.737h408.207v-19.306H127.949z" class="cls-5" transform="translate(47.137 215.665)"/>
        <path id="Path_16407" d="M133.156 585.45h-19.332v19.306h19.332z" class="cls-6" transform="translate(41.93 215.672)"/>
        <path id="Path_16408" d="M529.508 779.376h400.1V107.6c0-45.108-400.1-45.108-400.1 0z" class="cls-6" transform="translate(195.157 27.059)"/>
        <path id="Path_16409" d="M536.269 779.376h400.077V107.6c0-45.108-400.131-45.108-400.131 0z" class="cls-4" transform="translate(197.629 27.059)"/>
        <path id="Path_16410" d="M911.169 745.62V113.427a8.573 8.573 0 0 0-5.681-8.075c-22.093-7.97-82.587-17.07-174.645-17.07s-152.314 9.1-174.513 17.07a8.572 8.572 0 0 0-5.681 8.075V745.62a8.575 8.575 0 0 0 8.574 8.548h343.371a8.574 8.574 0 0 0 8.575-8.548z" class="cls-7" transform="translate(202.95 32.409)"/>
        <path id="Path_16411" d="M776.9 92.1l62.388 662.073h-91.11L685.365 88.282c35.403 0 66.045 1.578 91.535 3.818z" class="cls-8" transform="translate(252.608 32.409)"/>
        <path id="Path_16412" d="M679.649 88.417l62.836 665.7h-50.342L629.518 90.311c15.255-.921 32.009-1.578 50.131-1.894z" class="cls-8" transform="translate(232.022 32.459)"/>
        <path id="Path_16413" d="M643.562 763.836v-681.8H626.1v681.8z" class="cls-4" transform="translate(230.761 30.107)"/>
        <path id="Path_16414" d="M746.4 763.836v-681.8h-17.468v681.8z" class="cls-4" transform="translate(268.667 30.107)"/>
        <path id="Path_16415" d="M546.035 257.684h377.328v-17.465H546.035z" class="cls-4" transform="translate(201.249 88.415)"/>
        <path id="Path_16416" d="M546.035 427.724h377.328V410.26H546.035z" class="cls-4" transform="translate(201.249 151.095)"/>
        <path id="Path_16417" d="M543.614 604.737H951.82v-19.306H543.614z" class="cls-5" transform="translate(200.357 215.665)"/>
        <path id="Path_16418" d="M548.84 585.45h-19.332v19.306h19.332z" class="cls-6" transform="translate(195.157 215.672)"/>
        <path id="Path_16419" d="M617.872 801.086c281.648 0 509.969-13.33 509.969-29.774s-228.32-29.774-509.969-29.774-509.967 13.33-509.967 29.774 228.32 29.774 509.967 29.774z" class="cls-5" transform="translate(39.748 273.208)"/>
        <path id="Path_16420" d="M304.144 258.343l16.781 57.864q2.131 7.181 4.366 14.257t4.419 14.1c3.13 9.179 6.207 18.412 9.6 26.618l-1.92-3.315a34.444 34.444 0 0 0 5.681 8.733 52.284 52.284 0 0 0 10.229 8.7 97.144 97.144 0 0 0 13.967 7.733c2.63 1.158 5.26 2.34 7.89 3.393l4.051 1.578 2 .764a7.128 7.128 0 0 1 1.657.736l8.312 10.521a13.388 13.388 0 0 1-2.183 18.806 13.581 13.581 0 0 1-5.839 2.629l-3.315.6-2.945.5c-1.946.289-3.866.5-5.814.709-3.892.29-7.89.474-11.73.4a108.772 108.772 0 0 1-11.914-.921 114.926 114.926 0 0 1-12.152-2.368 91.664 91.664 0 0 1-24.435-10.336 80.239 80.239 0 0 1-21.777-19.622l-.525-.788-1.395-2.631a326.623 326.623 0 0 1-14.966-30.59c-4.445-10.125-8.312-20.2-11.967-30.352l-2.63-7.6-2.63-7.627c-1.63-5.076-3.367-10.152-4.839-15.282s-3.077-10.232-4.445-15.386-2.629-10.232-4-15.782a32.273 32.273 0 0 1 62.442-16.307z" class="cls-9" transform="translate(88.723 86.31)"/>
        <path id="Path_16421" d="M273.69 221.809c26.537 13.913 46.291 64.86 46.291 64.86-3.709 17.043-36.428 52.236-57.049 57.864a96.9 96.9 0 0 1-22.83-47.711c-4.761-30.957 18.622-72.752 33.588-75.013z" class="cls-10" transform="translate(88.246 81.629)"/>
        <path id="Path_16422" d="M338.172 354.509l-7.655 16.99c-1.21 19.543 24.173 16.729 24.173 16.729l12.755 3.6a9.893 9.893 0 0 0 11.258-6.075l5.444-11.837a10.309 10.309 0 0 0-3.947-13.806l-10.52-4.891a20.515 20.515 0 0 0-9.758-1.894z" class="cls-11" transform="translate(121.791 130.097)"/>
        <path id="Path_16423" d="M363.652 408.99l-24.171-4.314 5.024-60.968 35.481 6.312z" class="cls-10" transform="translate(125.111 126.563)"/>
        <path id="Path_16424" d="M381.173 346.057L343.8 339.4l-2.183 5.524L381.33 352z" class="cls-12" transform="translate(125.897 124.976)"/>
        <path id="Path_16425" d="M378.717 343.462l-32.983-5.862-2.025 5.55 35.008 6.233z" class="cls-12" transform="translate(126.669 124.31)"/>
        <path id="Path_16426" fill="#fff" d="M354.441 393.2l-14.23-2.525 3.446-41.662 18.07 3.235z" opacity="0.8" transform="translate(125.38 128.518)"/>
        <path id="Path_16427" d="M328.113 705.947l-37.638 9.995 11.179 51.025 31.484-8.31z" class="cls-11" transform="translate(107.046 260.089)"/>
        <path id="Path_16428" d="M324.434 417.628l-19.492-4.553a4.577 4.577 0 0 0-5.5 3.416l-9.723 41.62a4.577 4.577 0 0 0 3.415 5.5l19.492 4.553a4.577 4.577 0 0 0 5.5-3.415l9.723-41.621a4.578 4.578 0 0 0-3.415-5.5z" class="cls-12" transform="translate(106.724 152.088)"/>
        <path id="Path_16429" d="M255.856 628.959C229 565.834 191.679 483.3 219.8 419.49l123.041-5.944s7.89 138.164 9.81 200.105c1.736 54.6 18.412 172.961 20.489 206.339a17.017 17.017 0 0 1-7.71 15.41c-7.89 5.05-31.957 8.706-40.926 10.363a17.068 17.068 0 0 1-18.832-10.521c-14.23-36.109-47.791-146.183-49.816-206.283z" class="cls-10" transform="translate(77.305 152.306)"/>
        <path id="Path_16430" d="M210.169 447.366c-3.078 43.5 13.334 91.293 30.851 134.139a818.428 818.428 0 0 0 5.813-101.288 33.033 33.033 0 0 0-36.664-32.851z" class="cls-14" transform="translate(77.306 164.699)"/>
        <path id="Path_16431" d="M183.391 713l-38.953.446-1.709 52.184 32.535-.316z" class="cls-11" transform="translate(52.585 262.689)"/>
        <path id="Path_16432" d="M142.3 618.679c-3.578-66.965-10.258-167.179 12.2-197.979l139.637-3.1s-38.323 146.659-52.6 208.469c-12.914 55.76-37.085 177.88-44.713 209.1-1.106 4.629-9.784 7.89-14.466 8.68a92.843 92.843 0 0 1-30.932.551c-5.26-.868-16.622-4.734-17.2-10.178-3.42-32.586-7.314-150.182 8.074-215.543z" class="cls-10" transform="translate(48.305 153.801)"/>
        <path id="Path_16433" d="M138.442 769.823h9.6l2.631-3.894 5.049 3.946H207.8a21.649 21.649 0 0 0-2.288-12.23s-17.57-2.63-24.25-11.31a2.181 2.181 0 0 0-2.131-.868c-5.787 1.21-22.777 5.55-35.4 1a2.1 2.1 0 0 0-2.84 1.894 140.323 140.323 0 0 1-2.447 21.463z" class="cls-12" transform="translate(51.005 274.645)"/>
        <path id="Path_16434" d="M142.308 741.906l-3.866-18.647a118.833 118.833 0 0 1 27.249-2.026c18.175.237 24.408 2.867 24.408 2.867l-8.338 19.91s-11.756-2.63-39.453-2.104z" class="cls-12" transform="translate(51.005 265.687)"/>
        <path id="Path_16435" d="M298.249 772.115l9.311-2.367 1.578-4.418 5.862 2.63 50.473-12.811a21.518 21.518 0 0 0-5.261-11.283s-17.674 1.736-26.3-5a2.158 2.158 0 0 0-2.288-.316c-5.26 2.631-20.7 10.994-34.192 9.679a2.1 2.1 0 0 0-2.288 2.63 139.89 139.89 0 0 1 3.1 21.252z" class="cls-12" transform="translate(108.742 272.037)"/>
        <path id="Path_16436" d="M295.765 744.064l-8.365-17.123a118.369 118.369 0 0 1 25.932-8.68c17.676-4.234 24.356-3.235 24.356-3.235l-3.182 21.357s-12.206.317-38.741 7.681z" class="cls-12" transform="translate(105.913 263.398)"/>
        <path id="Path_16437" d="M293.343 218.407a557.116 557.116 0 0 0-122.962 1.946 41.5 41.5 0 0 0-34.534 49.422c19.122 96.292 4.839 203.76 17.228 225.277 67.964 20.225 199.158 18.779 215.861-3.1 44.713-41.9-21.042-168.464-42.557-250.079-3.679-13.891-18.679-21.966-33.036-23.466z" class="cls-12" transform="translate(49.734 79.454)"/>
        <path id="Path_16438" d="M193.158 288.615L186.11 300c-2.368 4.025-4.813 7.891-7.1 12.073-4.682 8.075-9 16.255-12.968 24.33-2 4.051-3.813 8.1-5.5 12.126s-3.261 7.89-4.577 11.836a92.247 92.247 0 0 0-4.865 21.041l-.368-3.814a177.581 177.581 0 0 0 2.629 18.412c1.343 6.523 2.815 13.282 4.63 20.068.894 3.42 1.789 6.865 2.814 10.311s1.894 6.969 2.945 10.521l3.1 10.521c.973 3.5 2.131 7.18 2.973 10.521l.342 1.367a16.333 16.333 0 0 1-27.7 15.2c-3.051-3.208-5.6-6.155-8.232-9.311s-5.05-6.312-7.444-9.573c-4.813-6.523-9.257-13.336-13.466-20.384a236 236 0 0 1-11.442-22.436 159.34 159.34 0 0 1-8.548-25.644 9.949 9.949 0 0 1-.21-1.473l-.158-2.342a129.879 129.879 0 0 1 3.77-39.45 210.492 210.492 0 0 1 11.02-33.456 284.859 284.859 0 0 1 14.52-30.3c2.631-4.839 5.444-9.627 8.417-14.309 1.473-2.34 2.971-4.708 4.523-7.022l2.394-3.5c.868-1.236 1.578-2.209 2.63-3.761a32.272 32.272 0 0 1 53.55 35.9z" class="cls-9" transform="translate(34.164 87.784)"/>
        <path id="Path_16439" d="M167.849 221.463c-28.195 10.1-54.813 57.864-54.813 57.864 1.315 17.411 28.932 56.759 48.475 65.282a96.692 96.692 0 0 0 29.221-44.161c8.943-30.038-8.363-74.672-22.883-78.985z" class="cls-10" transform="translate(41.64 81.502)"/>
        <path id="Path_16440" d="M201.431 240.41a1.405 1.405 0 0 1-.657-.157c-9.573-4.839-15.36-12.021-14.755-18.279a9.572 9.572 0 0 1 7.89-8.049 1.419 1.419 0 0 1 1.514.5 1.441 1.441 0 0 1 .249.5 1.422 1.422 0 0 1-.5 1.514 1.406 1.406 0 0 1-.5.249c-3.445.947-5.418 2.893-5.681 5.576-.394 4.155 3.526 10.52 13.151 15.439a1.417 1.417 0 0 1 .717.828 1.422 1.422 0 0 1-.085 1.092 1.394 1.394 0 0 1-1.343.788z" class="cls-10" transform="translate(68.526 78.703)"/>
        <path id="Path_16441" d="M240.35 240.006a1.419 1.419 0 0 1-1-2.446c5.26-5.261 7.206-11.39 4.865-16.229-2.157-4.392-7.259-6.628-13.362-5.839a1.433 1.433 0 0 1-.368-2.841c7.365-.947 13.6 1.894 16.307 7.418 2.867 5.918.79 13.414-5.444 19.542a1.448 1.448 0 0 1-.998.395z" class="cls-10" transform="translate(84.473 78.187)"/>
        <path id="Path_16442" d="M260.566 235.639a26.293 26.293 0 0 0-12.415-11.756 24.068 24.068 0 0 1-.42-16.176l-60.494-19.28c4.181 17.017 7.574 31.01 3.918 40.794a6.837 6.837 0 0 0 3.13 8.232c12.494 7.287 31.4 16.781 51.788 16.2 23.672-.681 18.359-9.623 14.493-18.014z" class="cls-11" transform="translate(68.991 69.324)"/>
        <path id="Path_16443" d="M244.389 266.376c9.259 1.1 17.939-7.89 19.385-20.042s-4.867-22.935-14.124-24.04-17.912 7.89-19.385 20.042 4.866 22.936 14.124 24.04z" class="cls-8" transform="translate(84.774 81.774)"/>
        <path id="Path_16444" d="M238.014 261.953c7.339.868 14.335-6.97 15.6-17.544s-3.682-19.831-11.046-20.7-14.309 6.97-15.571 17.517 3.653 19.859 11.017 20.727z" class="cls-10" transform="translate(83.573 82.305)"/>
        <path id="Path_16445" d="M243.34 204.605l-45.476-2.629c14.229 15.2 35.771 21.041 45.608 14.729a23.837 23.837 0 0 1-.131-12.1z" class="cls-14" transform="translate(72.908 74.318)"/>
        <path id="Path_16446" d="M178.881 178.448c7.233 26.065 12.757 43.634 31.562 52.025 37.4 16.649 54.1-1 55.445-28.538 1.184-24.776-10.837-63.125-40.874-68.858-29.563-5.523-53.34 19.306-46.133 45.371z" class="cls-11" transform="translate(65.432 48.635)"/>
        <path id="Path_16447" d="M196.858 159.528c7.418 11.362 4.314 32.168 0 39.821-20.094-5.261-23.672-19.254-23.672-19.254-2.63 0-8.153-12.545-4.314-28.694s37.744-27.38 57.392-24.567 28.248 9.679 29.669 21.411a98.923 98.923 0 0 1-34.456 13.519 52.764 52.764 0 0 0 13.151-13.887 332.052 332.052 0 0 0-37.77 11.651z" class="cls-12" transform="translate(61.737 46.461)"/>
        <path id="Path_16448" d="M204.169 122.832c-52.051 5.13-60.731 43.688-47.186 54.051s20.41 6.049 20.41 6.049l76.277-46.922c-4.235-9.022-23.409-15.756-49.501-13.178z" class="cls-10" transform="translate(55.74 44.94)"/>
        <path id="Path_16449" d="M226.3 185.81a23.3 23.3 0 0 0 3.578 0 .63.63 0 0 0 .552-.684.684.684 0 0 0-.736-.579 18.014 18.014 0 0 1-14.57-5.681.659.659 0 0 0-.9 0 .605.605 0 0 0 0 .868 18.863 18.863 0 0 0 12.076 6.076z" class="cls-12" transform="translate(78.873 65.735)"/>
        <path id="Path_16450" d="M175.628 194.063a27.3 27.3 0 0 0 19.147 8.732c9.679.237 12.231-9.021 7.655-16.912-4.157-7.128-14.178-15.781-22.963-12.309s-9.836 13.887-3.839 20.489z" class="cls-11" transform="translate(63.32 63.557)"/>
        <path id="Path_16451" d="M166.749 176.481c-6.26 8.26 1.919 15.781 10.7 17.544 8.469-6.944 16.57-29.826 45.266-39.059s35.4-4.314 36.981-8.626a12.547 12.547 0 0 0-7.5-14.966c-7.225-3.209-49.414-2.236-85.447 45.107z" class="cls-10" transform="translate(60.626 47.893)"/>
        <path id="Path_16452" fill="#fff" d="M166.749 176.481c-6.26 8.26 1.919 15.781 10.7 17.544 8.469-6.944 16.57-29.826 45.266-39.059s35.4-4.314 36.981-8.626a12.547 12.547 0 0 0-7.5-14.966c-7.225-3.209-49.414-2.236-85.447 45.107z" opacity="0.2" transform="translate(60.626 47.893)"/>
        <path id="Path_16453" d="M215.716 164.786c.422 2.316 2 3.972 3.524 3.657s2.394-2.42 1.974-4.735-2.026-3.972-3.552-3.656-2.446 2.42-1.946 4.734z" class="cls-12" transform="translate(79.439 58.85)"/>
        <path id="Path_16454" d="M233.334 161.967c.422 2.314 2 3.946 3.524 3.657s2.394-2.42 1.974-4.735-2.026-3.972-3.552-3.682-2.394 2.42-1.946 4.76z" class="cls-12" transform="translate(85.94 57.804)"/>
        <path id="Path_16455" fill="#a02724" d="M227.71 163.117l3.5 19.542a21.656 21.656 0 0 0 6.891-.973 2.631 2.631 0 0 0 .631-4.551c-5.973-4.154-11.022-14.018-11.022-14.018z" transform="translate(83.91 59.994)"/>
        <path id="Path_16456" d="M206.1 162.98a1.561 1.561 0 0 1-.684 0 1.395 1.395 0 0 1-.631-1.868 13.968 13.968 0 0 1 10.047-7.89 1.39 1.39 0 0 1 .316 2.762 11.171 11.171 0 0 0-7.89 6.259 1.449 1.449 0 0 1-1.158.738z" class="cls-12" transform="translate(75.406 56.344)"/>
        <path id="Path_16457" d="M242.377 156.6a1.366 1.366 0 0 1-1.236-.394 10.862 10.862 0 0 0-9.311-3.63 1.394 1.394 0 0 1-1.094-2.008 1.4 1.4 0 0 1 .62-.623 13.623 13.623 0 0 1 11.808 4.445 1.412 1.412 0 0 1 .3.453 1.388 1.388 0 0 1-.3 1.519 1.279 1.279 0 0 1-.787.238z" class="cls-12" transform="translate(84.972 55.101)"/>
        <path id="Path_16458" d="M150.727 394.559l-16.492 8.678c-12.994 14.651 8.732 28.091 8.732 28.091l7.891 10.679a9.942 9.942 0 0 0 12.624 2.157l11.573-5.971a10.31 10.31 0 0 0 5.261-13.308l-5.261-10.337a20.384 20.384 0 0 0-6.523-7.5z" class="cls-11" transform="translate(47.927 145.307)"/>
        <path id="Path_16459" d="M218.3 262.722c-7.575 3.814-17.6-.788-22.384-10.284s-2.629-20.3 5.05-24.119 17.6.79 22.384 10.284 2.523 20.278-5.05 24.119z" class="cls-10" transform="translate(71.255 83.535)"/>
        <path id="Path_16460" d="M215.4 268.55c8.729-4.4 11.331-16.845 5.81-27.791s-17.071-16.254-25.8-11.852-11.334 16.845-5.81 27.793 17.067 16.252 25.8 11.85z" class="cls-8" transform="translate(68.793 83.675)"/>
        <path id="Path_16461" d="M352.092 478.025h-.159a.736.736 0 0 1-.552-.868c.263-1.262.605-2.629.92-3.761 2.841-11.257 5.261-21.041-26.828-29.142-24.3-6.182-32.877-45.53-40.426-80.247-3.813-17.544-7.417-34.193-12.624-43.345-7.629-13.6-20.306-25.2-32.588-36.4s-23.83-21.777-29.3-33.378a.736.736 0 0 1 .9-.89.738.738 0 0 1 .411.285c5.26 11.364 16.807 21.831 28.931 32.93s25.146 22.963 32.878 36.823c5.26 9.443 8.917 26.119 12.757 43.741 7.469 34.192 15.939 73.225 39.452 79.169 33.483 8.521 30.747 19.384 27.828 30.879-.289 1.236-.6 2.472-.894 3.735a.709.709 0 0 1-.276.354.7.7 0 0 1-.434.118z" class="cls-10" transform="translate(77.571 92.008)"/>
        <path id="Path_16462" d="M254.569 311.951a.746.746 0 0 1-.367-.115.761.761 0 0 1-.264-.279c-12.546-24.487-9.784-40.4-7.891-52.051a56.172 56.172 0 0 0 1.106-8.891.71.71 0 1 1 1.419 0 58.348 58.348 0 0 1-1.1 9.153c-2 11.414-4.734 27.064 7.627 51.131a.731.731 0 0 1 .04.55.742.742 0 0 1-.354.423.724.724 0 0 1-.216.079z" class="cls-10" transform="translate(90.06 91.986)"/>
        <path id="Path_16463" d="M440.527 185.92c-10.521 11.995-13.151 26.3-12.493 61.389s-21.331 53.683-5.55 68.016 84.376 7.076 100.447-3.287-17.254-62.834-10.863-84.166 5.261-42.084-13.861-49.974c-15.964-6.498-41.399-10.705-57.68 8.022z" class="cls-12" transform="translate(153.601 63.414)"/>
        <path id="Path_16464" d="M439.486 285.469c-25.854 16.518-60.941 97.5-42.082 117.386s70.778 17.465 88.4-1.262-17.597-134.483-46.318-116.124z" class="cls-12" transform="translate(144.49 104.37)"/>
        <path id="Path_16465" d="M427.928 703.544l-28.064 2.079c3.866 22.33 7.522 57.6 7.522 57.6h22.251s-2.551-44.292-1.709-59.679z" class="cls-17" transform="translate(147.369 259.203)"/>
        <path id="Path_16466" d="M535.473 703.544l-27.854 2.079c6.26 22.33 13.676 57.6 13.676 57.6h22.225s-7.233-44.292-8.047-59.679z" class="cls-17" transform="translate(187.088 259.203)"/>
        <path id="Path_16467" d="M453.669 770.344c-19.332 0-17.964-.316-28.932-.658-9.311-.341-11.468.816-18.964.658-6.233-.131-6.443-6.129-5.023-12.994.552-2.63 1.367-5.733 2.13-9.521a4.632 4.632 0 0 1 4.6-3.735h22.62a5.266 5.266 0 0 1 4.261 2.157 32.557 32.557 0 0 0 22.489 12.625c10.575 1.394 4.525 11.468-3.181 11.468z" class="cls-10" transform="translate(147.43 274.151)"/>
        <path id="Path_16468" d="M574.454 762.445c-18.649 3.21-20.752 2.342-31.378 3.815-9.1 1.236-9.837 3.341-18.937 4.919-6.023 1.052-9.5-5.418-9.233-10.757.131-3.209.79-6.97.764-10.916a4.129 4.129 0 0 1 3.524-4.234l19.385-3.367a5.687 5.687 0 0 1 4.366 1.1 41.1 41.1 0 0 0 30.851 8.575c10.389-.997 8.104 9.578.658 10.865z" class="cls-10" transform="translate(189.769 273.316)"/>
        <path id="Path_16469" d="M529.463 384.777s17.6 136.77 16.044 223.566c6.68 81.536 17.386 237.427 17.386 237.427-.316 4.183-22.3 2.631-26.3 0 0 0-50.342-105.207-42.084-237.427-55.918-137.9-52.6-223.566-52.6-223.566z" class="cls-12" transform="translate(162.851 141.701)"/>
        <path id="Path_16470" d="M453.309 477.348c4.34 17.806 9.915 37.559 17.043 59.048 2.078-43.293 13.782-101.236 14.178-103.209z" class="cls-14" transform="translate(167.069 159.546)"/>
        <path id="Path_16471" d="M524.384 384.777s-40.006 154.444-55.839 230.115c-16.623 79.59-39.953 178.012-35.324 230.878-4.444 2.631-20.357 2.815-29.379 0 0 0-34.192-150.736 9.311-227.354-15.782-188.532 34.192-233.639 34.192-233.639z" class="cls-12" transform="translate(144.127 141.701)"/>
        <path id="Path_16472" d="M432.863 714.334a76.67 76.67 0 0 0 1.315 10.863 2.18 2.18 0 0 1-.335 1.711 2.183 2.183 0 0 1-1.479.92c-10.705 1.736-26.3-.762-31.3-1.657a2.314 2.314 0 0 1-1.864-1.871l-1.9-10.149a2.157 2.157 0 0 1 2.209-2.631l31.062.579a2.338 2.338 0 0 1 2.288 2.235z" class="cls-12" transform="translate(146.405 262.143)"/>
        <path id="Path_16473" d="M432.863 714.334a76.67 76.67 0 0 0 1.315 10.863 2.18 2.18 0 0 1-.335 1.711 2.183 2.183 0 0 1-1.479.92c-10.705 1.736-26.3-.762-31.3-1.657a2.314 2.314 0 0 1-1.864-1.871l-1.9-10.149a2.157 2.157 0 0 1 2.209-2.631l31.062.579a2.338 2.338 0 0 1 2.288 2.235z" class="cls-18" transform="translate(146.405 262.143)"/>
        <path id="Path_16474" d="M541.057 713.79c.289 2.815.842 7.892 1.393 11.6a2.182 2.182 0 0 1-1.894 2.5 156.9 156.9 0 0 1-28.931-.342 2.262 2.262 0 0 1-2.026-1.71l-2.63-10.152a2.182 2.182 0 0 1 2.026-2.788l29.747-1.184a2.29 2.29 0 0 1 2.316 2.078z" class="cls-12" transform="translate(186.817 262.214)"/>
        <path id="Path_16475" d="M541.057 713.79c.289 2.815.842 7.892 1.393 11.6a2.182 2.182 0 0 1-1.894 2.5 156.9 156.9 0 0 1-28.931-.342 2.262 2.262 0 0 1-2.026-1.71l-2.63-10.152a2.182 2.182 0 0 1 2.026-2.788l29.747-1.184a2.29 2.29 0 0 1 2.316 2.078z" class="cls-18" transform="translate(186.817 262.214)"/>
        <path id="Path_16476" d="M515.211 285.581c6.943 11.283 13.651 22.83 20.279 34.349s13.151 23.2 19.543 34.824l4.813 8.732 1.183 2.21c0 .131-.183 0-.472-.37a9.6 9.6 0 0 0-1.631-1.156 8.625 8.625 0 0 0-2.762-.973 4.728 4.728 0 0 0-3.287.342c-.185.21.342.158 1.052-.131a28.317 28.317 0 0 0 5.759-3.526c8.785-6.706 17.859-16.7 26.539-25.96l.316-.315a9.258 9.258 0 0 1 15.36 9.758 145.222 145.222 0 0 1-9.284 19.2c-1.761 3.1-3.682 6.155-5.787 9.205a86.443 86.443 0 0 1-7.022 9.048 52.769 52.769 0 0 1-9.969 8.968 33.144 33.144 0 0 1-7.89 4.077 25.088 25.088 0 0 1-13.151.894 23.637 23.637 0 0 1-7.338-2.893 25.9 25.9 0 0 1-5.418-4.392 31.477 31.477 0 0 1-3.445-4.392l-1.394-2.1-5.6-8.337q-11.073-16.754-21.725-33.824c-7.048-11.416-13.967-22.83-20.515-34.588a18.457 18.457 0 0 1 31.825-18.7z" class="cls-17" transform="translate(177.208 101.76)"/>
        <path id="Path_16477" d="M493.413 268.354c19.28 3.63 29.485 19.964 48.475 54.13-4.418 12.729-34.323 24.907-34.323 24.907s-45.899-54.154-14.152-79.037z" class="cls-10" transform="translate(177.728 98.786)"/>
        <path id="Path_16478" d="M436.891 367.846a200.691 200.691 0 0 1-2.973 24.067h97.448l1.026-24.8s-75.092-4.263-95.501.733z" class="cls-17" transform="translate(159.921 134.565)"/>
        <path id="Path_16479" d="M548.079 303.306a417.6 417.6 0 0 1-.683 44.923c-.79 19.517 2.919 24.3 0 56.26-10.679 6.26-80.958 6.023-115.518 1.552 2.1-27.643 4.681-46.318-14.072-108.547-4.34-14.414 5.261-28.276 20.832-29.748 4.129-.394 8.521-.736 13.02-.947a356.276 356.276 0 0 1 47.343 0c5.26.447 10.52 1.052 15.6 1.737 18.355 2.393 32.927 17.49 33.478 34.77z" class="cls-10" transform="translate(153.597 97.922)"/>
        <path id="Path_16480" d="M431.339 406.423a73.863 73.863 0 0 1-10.284-.683 1.369 1.369 0 0 1-1.1-1.526 1.338 1.338 0 0 1 1.5-1.1c13.308 2 38.032.183 51.657-12.94 7.207-6.944 10.206-16.176 8.943-27.434-4.209-37.348-37.111-92.714-42.084-95.055a1.318 1.318 0 0 1-.157-2.63 2.608 2.608 0 0 1 1.074.145 2.635 2.635 0 0 1 .925.565c7.89 6.049 38.743 60.757 42.792 96.686 1.369 12.1-1.92 22.068-9.758 29.616-11.157 10.858-29.49 14.356-43.508 14.356z" class="cls-12" transform="translate(154.768 97.566)"/>
        <path id="Path_16481" d="M444.944 227.632c4.13 15.255 9.207 43.187-.71 53.366 0 0-7.6 14.307 37.35 11.993C513.145 291.362 491.63 281 491.63 281c-17.306-4.051-17.806-16.675-15.782-28.511z" class="cls-17" transform="translate(163.545 83.776)"/>
        <path id="Path_16482" d="M453.907 235.05l18.411 14.676a46.088 46.088 0 0 0-.814 8.417c-6.576-.947-16.044-8.075-17.228-14.86a22.282 22.282 0 0 1-.368-8.232z" class="cls-14" transform="translate(167.208 86.51)"/>
        <path id="Path_16483" d="M435.306 215.739c4.63 24.645 6.077 35.139 20.121 46.949 21.042 17.754 50.184 8.364 52.946-16.755 2.5-22.593-5.5-59.047-30.852-67.2a32.09 32.09 0 0 0-42.215 37.007z" class="cls-17" transform="translate(160.164 65.053)"/>
        <path id="Path_16484" d="M473.091 210.432a1.348 1.348 0 0 1-.973-.394 1.4 1.4 0 0 1 0-1.974 11.256 11.256 0 0 1 11.7-1.367 1.394 1.394 0 0 1-1.5 2.34 8.867 8.867 0 0 0-8.258 1 1.4 1.4 0 0 1-.973.394z" class="cls-12" transform="translate(173.852 75.673)"/>
        <path id="Path_16485" d="M463.626 209.324c.315 2.1 1.63 3.709 2.971 3.6s2.157-1.868 1.868-3.946-1.631-3.709-2.973-3.6-2.156 1.868-1.866 3.946z" class="cls-12" transform="translate(170.85 75.571)"/>
        <path id="Path_16486" d="M482 208.248c.316 2.078 1.631 3.682 2.973 3.6s2.157-1.868 1.867-3.946-1.63-3.709-2.945-3.6-2.187 1.867-1.895 3.946z" class="cls-12" transform="translate(177.623 75.174)"/>
        <path id="Path_16487" d="M482.943 204.9l4.682-1.815s-1.946 4.108-4.682 1.815z" class="cls-12" transform="translate(177.993 74.729)"/>
        <path id="Path_16488" fill="#ed847e" d="M477.235 210.066a62.444 62.444 0 0 0 9.179 12.757 8.364 8.364 0 0 1-7.074 1.92z" transform="translate(175.889 77.3)"/>
        <path id="Path_16489" d="M474.2 228.931a21.6 21.6 0 0 0 3.471 0 .55.55 0 0 0 .4-.216.576.576 0 0 0 .1-.209.529.529 0 0 0 0-.231.656.656 0 0 0-.683-.579 17.517 17.517 0 0 1-14.1-5.472.586.586 0 0 0-.177-.167.6.6 0 0 0-.229-.085.607.607 0 0 0-.244.012.642.642 0 0 0-.219.108.657.657 0 0 0 0 .869 18.543 18.543 0 0 0 11.678 5.97z" class="cls-12" transform="translate(170.404 81.687)"/>
        <path id="Path_16490" d="M432.6 220.4a17.211 17.211 0 0 0 8.416 10.994c5.261 2.629 9.075-3.315 8.5-10.126-.527-6.129-3.892-14.888-9.679-14.6s-8.945 7.521-7.237 13.732z" class="cls-17" transform="translate(159.265 76.045)"/>
        <path id="Path_16491" d="M458.845 201.7a1.236 1.236 0 0 0 .869-.368 9.016 9.016 0 0 1 7.89-3.077 1.11 1.11 0 0 0 .881-.175 1.1 1.1 0 0 0 .46-.772 1.341 1.341 0 0 0-1.053-1.447 11.226 11.226 0 0 0-10.125 3.735 1.346 1.346 0 0 0 .579 2.016 1.245 1.245 0 0 0 .5.088z" class="cls-12" transform="translate(168.608 72.018)"/>
        <path id="Path_16492" d="M488.355 197.134a1.063 1.063 0 0 0 .449-.041 1.077 1.077 0 0 0 .393-.222 1.236 1.236 0 0 0 0-1.735 12.909 12.909 0 0 0-10.522-4.629 1.112 1.112 0 0 0-.437.148 1.129 1.129 0 0 0-.531.731 1.145 1.145 0 0 0-.005.463 1.343 1.343 0 0 0 1.421 1.078 10.249 10.249 0 0 1 8.232 3.761 1.343 1.343 0 0 0 1 .446z" class="cls-12" transform="translate(176.053 70.085)"/>
        <path id="Path_16493" d="M464.571 205.994l4.681-1.789s-1.946 4.05-4.681 1.789z" class="cls-12" transform="translate(171.22 75.14)"/>
        <path id="Path_16494" d="M474.651 325.332l-7.734-.657a9.017 9.017 0 0 0-7.705 3.077l-9 10.311a17.039 17.039 0 0 0-3.682 15.071l.814 3.287c12.757 2.131 28.117-5 28.117-5l4.63-1.526a7.573 7.573 0 0 0 5-9.5l-2.945-9.153a8.6 8.6 0 0 0-7.5-5.918z" class="cls-17" transform="translate(164.402 119.531)"/>
        <path id="Path_16495" d="M597.278 323.478l-3.84 6.759a9.08 9.08 0 0 1-6.943 4.551l-13.624 1.393a16.832 16.832 0 0 1-14.414-5.655l-2.235-2.629c5.6-11.652 20.253-20.147 20.253-20.147l3.918-2.867a7.523 7.523 0 0 1 10.52 1.367l5.814 7.655a8.729 8.729 0 0 1 .552 9.574z" class="cls-17" transform="translate(205.004 111.68)"/>
        <path id="Path_16496" d="M448.154 305.342L446.76 309l-1.5 4.051c-.947 2.631-1.946 5.5-2.841 8.258-1.867 5.576-3.445 11.2-4.945 16.834s-2.629 11.283-3.707 16.912a160.738 160.738 0 0 0-2.079 16.886l-.368-3.524a9.176 9.176 0 0 0-1.5-2.631 7.185 7.185 0 0 0-3.025-2.236c-1.735-.551-1.367 0-.237.237a22 22 0 0 0 4.839 0c1.946-.157 4.051-.5 6.26-.894 4.392-.79 9.022-1.974 13.73-3.261s9.521-2.788 14.124-4.1l.525-.159a9.285 9.285 0 0 1 8.522 16.044A123.934 123.934 0 0 1 461.2 381.2a119.7 119.7 0 0 1-14.886 8.1 83.4 83.4 0 0 1-8.574 3.234 46.728 46.728 0 0 1-10.389 2.1 29.632 29.632 0 0 1-15.256-2.473 23.945 23.945 0 0 1-8.837-7.18 25.861 25.861 0 0 1-4.525-9.627 11.425 11.425 0 0 1-.341-2.472v-1.026a158.456 158.456 0 0 1 .446-21.252c.263-3.524.736-6.97 1.184-10.52s1.1-6.865 1.815-10.258a192.736 192.736 0 0 1 5.261-20.042c1.051-3.287 2.1-6.549 3.367-9.784.631-1.631 1.236-3.261 1.92-4.893s1.341-3.13 2.287-5.26a18.438 18.438 0 1 1 34.009 14.255z" class="cls-17" transform="translate(146.764 102.541)"/>
        <path id="Path_16497" d="M442.128 267.432c-16.991 2.63-23.8 7.89-37.69 41.951 6.312 12.731 35.8 24.935 35.8 24.935s19.539-44.24 1.89-66.886z" class="cls-10" transform="translate(149.055 98.446)"/>
        <path id="Path_16498" d="M479.393 175.565c6.918 8.522-18.411 48.527-47.869 60.494-10.285-25.329 9.863-67.069 47.869-60.494z" class="cls-12" transform="translate(158.054 64.327)"/>
        <path id="Path_16499" d="M451.324 179.93c-4.525-3.892-8.891-18.727 7.707-20.253s34.192 4.971 22.277 22.41c-26.539-1.395-29.984-2.157-29.984-2.157z" class="cls-12" transform="translate(164.819 58.647)"/>
        <path id="Path_16500" d="M481.786 177.651h-.42a81.236 81.236 0 0 0-31.878-2.472 1.33 1.33 0 0 1-.984-.256 1.327 1.327 0 0 1-.516-.876 1.344 1.344 0 0 1 .03-.517 1.314 1.314 0 0 1 .226-.465 1.294 1.294 0 0 1 .386-.345 1.334 1.334 0 0 1 .49-.171 82.367 82.367 0 0 1 33.062 2.63 1.315 1.315 0 0 1 .842 1.657 1.26 1.26 0 0 1-1.237.814z" class="cls-10" transform="translate(165.103 63.24)"/>
        <path id="Path_16501" d="M534.772 393.171a468.448 468.448 0 0 1-104.787-.209 2.368 2.368 0 0 1-1.815-3.315l2.63-6.049a2.236 2.236 0 0 1 2.262-1.395 457.627 457.627 0 0 0 100.763 0 2.289 2.289 0 0 1 2.446 2.105c.211 2.1.42 4.181.6 6.26a2.329 2.329 0 0 1-.069.926 2.316 2.316 0 0 1-2.036 1.677z" class="cls-10" transform="translate(157.726 140.75)"/>
        <path id="Path_16502" d="M480.066 211.538a10.936 10.936 0 1 1-.991-4.156 10.967 10.967 0 0 1 .991 4.156z" class="cls-12" transform="translate(168.85 73.962)"/>
        <g id="Group_4091" class="cls-20" transform="translate(627.058 275.005)">
            <path id="Path_16503" d="M470.105 201.034l-11.915 11.915a10.524 10.524 0 0 0 1.868 5.26l15.2-15.229a10.366 10.366 0 0 0-5.153-1.946z" class="cls-21" transform="translate(-458.19 -201.034)"/>
            <path id="Path_16504" d="M476.143 203.59l-15.493 15.465a11.036 11.036 0 0 0 6.734 2.945l11.73-11.73a10.861 10.861 0 0 0-2.971-6.68z" class="cls-21" transform="translate(-457.283 -200.092)"/>
        </g>
        <path id="Path_16505" d="M500.995 209.424a10.968 10.968 0 1 1-3.508-7.608 10.979 10.979 0 0 1 3.508 7.608z" class="cls-12" transform="translate(176.564 73.183)"/>
        <g id="Group_4092" class="cls-20" transform="translate(655.702 272.112)">
            <path id="Path_16506" d="M491.033 198.92l-11.914 11.915a10.225 10.225 0 0 0 1.893 5.26l15.2-15.2a10.519 10.519 0 0 0-5.179-1.975z" class="cls-21" transform="translate(-479.119 -198.92)"/>
            <path id="Path_16507" d="M497.063 201.4L481.6 216.838a10.75 10.75 0 0 0 6.706 2.945l11.73-11.73a10.648 10.648 0 0 0-2.971-6.654z" class="cls-21" transform="translate(-478.205 -198.006)"/>
        </g>
        <path id="Path_16508" d="M751.439 211.277c23.487 4.971 24.671 14.546 19.911 19.437-5.261 5.261-21.488 0-21.488 0z" class="cls-12" transform="translate(276.382 77.747)"/>
        <path id="Path_16509" d="M726 609.152c18.175-74.934 46.187-147.133 50.5-231.272l-55.233-.9-42.452-.683S666.4 508.074 661.193 615.833c-1.447 29.826-18.044 114.125-22.778 179.643-1.709 23.672-12.2 35.06-10.152 50.762l51.052 26.119c19.148-8.97 11.652-35.43 14.072-48.4C705.223 760.651 728.184 691.74 726 609.152z" class="cls-12" transform="translate(231.462 138.577)"/>
        <path id="Path_16510" d="M709.073 568.05c14.2-52.419 31.063-104.445 38.9-161.23-62.573 27.749-60.625 115.202-38.9 161.23z" class="cls-14" transform="translate(256.281 149.827)"/>
        <path id="Path_16511" d="M694.408 760.526l-3.367-1.421-97.87-15.491c-3.445 2.762-1.762 13.519 11.362 15.308s33.4 4.076 46.923 5.918 24.907 3.918 37.612 5.655c3.657.551 6.813-4.525 5.34-9.969z" class="cls-12" transform="translate(218.053 273.974)"/>
        <path id="Path_16512" d="M698.534 733.333c1.552 12.124.394 31.01-3.761 38.006-.159 2.629-2.368 2.366-4.945 2.024-13.993-1.919-29.931-4.575-43.451-6.654-15.781-2.42-25.96-2.315-44.477-5.128-11.179-1.737-11.125-9.758-6.417-11.547 12.441-4.682 32.009-4.891 45.819-16.912 0 0-9.5-11.941-2.052-16.781s27.407-3.419 27.564 3.6A30.539 30.539 0 0 1 664 732.833s29.563-8.075 34.534.5z" class="cls-10" transform="translate(218.372 262.872)"/>
        <path id="Path_16513" d="M717.473 261.353c-1.684 3.315-3.578 7.181-5.261 10.863s-3.5 7.444-5.259 11.2c-3.393 7.5-6.628 15.045-9.627 22.593s-5.761 15.071-8.075 22.436a127.34 127.34 0 0 0-5 20.542l-.368-6.732c.709 4.734 1.5 9.494 2.366 14.176s1.841 9.364 2.947 13.941 2.235 9.153 3.524 13.571c.657 2.183 1.315 4.366 2.025 6.445l1.051 3.051.5 1.393c0 .368.421 1.026.316.9a21.357 21.357 0 1 1-38.138 19.226l-1.289-2.63-1.025-2.1-1.815-4.024c-1.158-2.631-2.236-5.261-3.261-7.891-2.052-5.26-3.894-10.363-5.6-15.571s-3.287-10.521-4.786-15.6-2.815-10.521-4.1-15.65a16.555 16.555 0 0 1-.474-5.26v-1.422a170.286 170.286 0 0 1 5.259-29.853c2.314-9.126 4.972-17.885 7.891-26.459s5.918-17.017 9.126-25.355c1.578-4.155 3.235-8.312 4.919-12.441s3.341-8.153 5.261-12.572a27.064 27.064 0 1 1 49.552 21.725 6.992 6.992 0 0 1-.659 1.498z" class="cls-10" transform="translate(234.441 81.405)"/>
        <path id="Path_16514" d="M717.473 261.353c-1.684 3.315-3.578 7.181-5.261 10.863s-3.5 7.444-5.259 11.2c-3.393 7.5-6.628 15.045-9.627 22.593s-5.761 15.071-8.075 22.436a127.34 127.34 0 0 0-5 20.542l-.368-6.732c.709 4.734 1.5 9.494 2.366 14.176s1.841 9.364 2.947 13.941 2.235 9.153 3.524 13.571c.657 2.183 1.315 4.366 2.025 6.445l1.051 3.051.5 1.393c0 .368.421 1.026.316.9a21.357 21.357 0 1 1-38.138 19.226l-1.289-2.63-1.025-2.1-1.815-4.024c-1.158-2.631-2.236-5.261-3.261-7.891-2.052-5.26-3.894-10.363-5.6-15.571s-3.287-10.521-4.786-15.6-2.815-10.521-4.1-15.65a16.555 16.555 0 0 1-.474-5.26v-1.422a170.286 170.286 0 0 1 5.259-29.853c2.314-9.126 4.972-17.885 7.891-26.459s5.918-17.017 9.126-25.355c1.578-4.155 3.235-8.312 4.919-12.441s3.341-8.153 5.261-12.572a27.064 27.064 0 1 1 49.552 21.725 6.992 6.992 0 0 1-.659 1.498z" class="cls-14" transform="translate(234.441 81.405)"/>
        <path id="Path_16515" d="M830.141 822.7c-9.758-64.044-10.731-166.411-30.827-215.675-4.155-74.644 9.627-161.625-9.02-229.09l-102.315-1.578s16.281 134.35 40.11 241.978c4.393 19.91 21.91 118.57 39.27 183.772 6.286 23.672 0 36.244 7.154 51.446l58.259 18.753c15.57-11.412-.527-36.506-2.631-49.606z" class="cls-12" transform="translate(253.572 138.598)"/>
        <path id="Path_16516" d="M826.859 756.348l-3.735-.947-99.947-2.024c-2.631 3.182 2.342 13.571 15.65 13.571s33.745-.5 47.343-.5 25.408.5 38.295.5c3.894 0 5.445-5.418 2.394-10.6z" class="cls-12" transform="translate(266.296 277.572)"/>
        <path id="Path_16517" d="M819.866 731.428c5.26 11.758 9.7 30.51 7.89 37.981.605 2.63-1.6 2.63-4.209 2.63-14.2 0-30.536-.5-44.292-.71-16.07-.237-25.96 1.236-44.713.921-11.415-.159-13.73-7.891-9.732-10.522 11.678-7.7 29.669-9.126 39.453-22.856 0 0-12.809-10.52-7.022-16.255s32.063-8.5 34.192-1.578a29.373 29.373 0 0 1 1.132 13.151s19.835-10.547 27.301-2.762z" class="cls-10" transform="translate(266.478 264.144)"/>
        <path id="Path_16518" d="M782.487 221.666a423.844 423.844 0 0 0-87.822-.368 41.929 41.929 0 0 0-37.481 38.743c-3.208 48.738 11.047 97.055 10.994 174.173 12.757 14.518 79.591 20.2 134.982 2.024 8.232-34.192 0-92.609 12.152-171.62a37.3 37.3 0 0 0-32.825-42.951z" class="cls-8" transform="translate(242.047 80.666)"/>
        <path id="Path_16519" d="M749.876 176.858l-37.139 29.563c4.813 13.151 6.312 27.222-16.15 32.771-5.918 7.655-2.631 18.675 12.231 26.907 24.251-5.839 37.979-12.572 46.764-25.644-3.208-9.968-8.758-45.423-5.706-63.597z" class="cls-22" transform="translate(255.721 65.06)"/>
        <path id="Path_16520" d="M729.646 185.66l-21.988 17.491a45.938 45.938 0 0 1 2.63 9.363c8.706.6 20.7-8.075 21.041-15.781a30.851 30.851 0 0 0-1.683-11.072z" class="cls-14" transform="translate(260.826 68.304)"/>
        <path id="Path_16521" d="M701.4 137.326c-20.253 18.175-8.365 29.117-9.995 39.453 11.622-6.127 22.327-24.75 9.995-39.453z" class="cls-12" transform="translate(254.095 50.487)"/>
        <path id="Path_16522" d="M756.928 171.84c-3.34 23.013-4.129 36.638-16.807 47.343-19.069 16.229-46.738 3-50.368-20.595-3.235-21.252 2.788-55.233 26.3-62.414a32.034 32.034 0 0 1 40.872 35.666z" class="cls-22" transform="translate(253.928 49.562)"/>
        <path id="Path_16523" d="M752.79 192.9c-15.018-1.578-9.653-8.732-7.522-14.65s-6.128-13.809-4.839-18.859c-8.049-2.629-13.73-4.445-15.151-8.232-7.442 3.787-29.906 11.862-38.295 0s-3.709-33.062 19.936-28.169c15.177 3.156 28.38 10.178 34.192 5.1s19.174-1.894 22.857 9.153 22.146 8.364 18.174 19.28-13.44 9.021-13.44 9.021.842 23.098-15.912 27.356z" class="cls-12" transform="translate(251.78 44.938)"/>
        <path id="Path_16524" d="M771.295 148.909a.685.685 0 0 1-.684-.5c-2.631-8.785-8.706-12.467-22.645-19.385a12.761 12.761 0 0 0-13.993.9c-3.709 2.077-7.575 4.234-13.783-.237-9.048-6.549-19.121-9.784-25.039-7.89a7.889 7.889 0 0 0-5.261 4.971.682.682 0 0 1-.919.394.7.7 0 0 1-.4-.372.751.751 0 0 1-.064-.272.738.738 0 0 1 .046-.276 9.4 9.4 0 0 1 6.286-5.812c6.419-1.894 16.755 1.341 26.3 8.232 5.472 3.946 8.6 2.183 12.257 0a14.128 14.128 0 0 1 15.308-.894c14.333 7.1 20.462 10.915 23.355 20.227a.7.7 0 0 1-.04.539.711.711 0 0 1-.407.354z" class="cls-12" transform="translate(253.764 44.06)"/>
        <path id="Path_16525" d="M697.319 183.359s8.127-2.63 30.931-4.445c-2.631 7.338-7.575 13.572-19.252 14.414a10.023 10.023 0 0 1-11.679-9.969z" class="cls-12" transform="translate(257.015 65.817)"/>
        <path id="Path_16526" d="M713.187 185.049a21.938 21.938 0 0 0-12.677 4.5 11.454 11.454 0 0 0 7.312 1.552 21.786 21.786 0 0 0 12.651-4.5 11.314 11.314 0 0 0-7.286-1.552z" class="cls-23" transform="translate(258.19 68.046)"/>
        <path id="Path_16527" d="M698.088 183.049c.657 1.473 1.315 2.945 3.6 3.261a120.58 120.58 0 0 0 20.147-3.42 7.047 7.047 0 0 0 5.13-3.918 185.256 185.256 0 0 0-28.879 4.077z" class="cls-8" transform="translate(257.298 65.839)"/>
        <path id="Path_16528" d="M748.831 175.532a19.93 19.93 0 0 1-9.863 11.784c-6.312 3.208-10.915-2.079-10.389-8.759.473-6 4.34-14.912 11.258-15.36a9.125 9.125 0 0 1 8.994 12.335z" class="cls-22" transform="translate(268.522 60.02)"/>
        <path id="Path_16529" d="M714.181 163.456c-.157 1.893-1.289 3.313-2.631 3.208s-2.1-1.735-1.946-3.6 1.289-3.339 2.631-3.208 2.104 1.732 1.946 3.6z" class="cls-12" transform="translate(261.536 58.788)"/>
        <path id="Path_16530" d="M697.731 163.051c-.159 1.894-1.289 3.341-2.631 3.209s-2.1-1.737-1.946-3.6 1.288-3.315 2.629-3.209 2.106 1.733 1.948 3.6z" class="cls-12" transform="translate(255.472 58.64)"/>
        <path id="Path_16531" d="M704.7 163.943a67.262 67.262 0 0 1-10.363 15.282c3.078 3.419 8.864 2.5 8.864 2.5z" class="cls-23" transform="translate(255.916 60.299)"/>
        <path id="Path_16532" d="M719.643 160.345a1.019 1.019 0 0 0 .551 0 1.084 1.084 0 0 0 .361-.238 1.1 1.1 0 0 0 .243-1.209 11.23 11.23 0 0 0-7.522-6.865 1.108 1.108 0 0 0-1.29.868 1.148 1.148 0 0 0-.005.437 1.1 1.1 0 0 0 .873.879 9.044 9.044 0 0 1 5.892 5.5 1.128 1.128 0 0 0 .9.631z" class="cls-12" transform="translate(262.413 55.902)"/>
        <path id="Path_16533" d="M689.326 157.841a1.209 1.209 0 0 0 .521-.156 1.235 1.235 0 0 0 .4-.37 8.623 8.623 0 0 1 6.706-4.366 1.1 1.1 0 1 0 0-2.209 10.891 10.891 0 0 0-8.549 5.26 1.1 1.1 0 0 0-.145.411 1.09 1.09 0 0 0 .023.435 1.11 1.11 0 0 0 .517.68 1.012 1.012 0 0 0 .526.315z" class="cls-12" transform="translate(253.671 55.432)"/>
        <path id="Path_16534" d="M752.212 217.482c-3.552-.394-6.182-3.13-11.863 2.63s-17.543 21.488-22.149 46.95a646.64 646.64 0 0 0-7.892 95.687c.316 23.672-2.893 68.175 6.314 91.741a6.674 6.674 0 0 0 5.549 2.631s-3.5-85.087 1.42-133.719 28.621-105.92 28.621-105.92z" class="cls-12" transform="translate(261.696 79.668)"/>
        <path id="Path_16535" d="M751.859 216.274c-11.7 0-25.96 22.488-31.563 55.233s-7.339 80.826-7.285 101.21-1.395 47.765 1.447 58.522 3.024 27.775 7.89 29.353 54.841-4.05 70.016-29.353c-2.209-18.964 3.735-59.6 1.815-76.7s6.734-65.017 6.1-89.427-9.204-48.838-48.42-48.838z" class="cls-10" transform="translate(262.68 79.589)"/>
        <path id="Path_16536" d="M781.273 290.7l-24.909-29.221c-.894 21.725 18.412 75.907 22.147 85.929a85.752 85.752 0 0 0-.368-9.547c-1.131-9.396.999-28.149 3.13-47.161z" class="cls-14" transform="translate(278.768 96.25)"/>
        <path id="Path_16537" d="M720.4 249.793c-1.025-12.966 11.232-37.059 23.094-41.373s27.144-.973 25.986 14.2c-25.201 11.392-40.98 27.016-49.08 27.173z" class="cls-12" transform="translate(265.499 76.053)"/>
        <path id="Path_16538" d="M694.229 452.981c5.444 0 5.261-3.315 2.972-18.412s-5.812-64.544-5.655-77.828 1.789-104.733 5.944-117.2c5.261-15.78 7.891-18.411 3.788-18.7a10.522 10.522 0 0 0-6.1 1.315s-13.151 66.728-11.862 136.007 10.913 94.818 10.913 94.818z" class="cls-12" transform="translate(251.819 81.256)"/>
        <path id="Path_16539" d="M705.2 219.254a4.76 4.76 0 0 1 4.5 6.654c-8.811 19.752-11.888 61.125-10.521 121.673 1.473 68.648 8.1 98.685 8.18 108.969-14.492 2.077-37.9-6.787-42.636-18.412s-12.523-75.409-11.183-95.66-3.5-68.6 4.788-91.478c7.784-21.489 6.495-30.773 46.872-31.746z" class="cls-10" transform="translate(240.799 80.686)"/>
        <path id="Path_16540" d="M700.2 234.413c2.447-8.863 17.334-10.336 18.412-22.619-23.54-5.735-27.538 4.286-34.192 11.257 3.287 13.493 10.521 33.4 10.521 33.4s2.559-12.201 5.259-22.038z" class="cls-12" transform="translate(252.261 77.31)"/>
        <path id="Path_16541" d="M732.477 440.828l-9.89 4.787a9.708 9.708 0 0 1-12.993-4.471 9.733 9.733 0 0 1 4.471-12.994l9.784-4.787a9.74 9.74 0 0 1 8.628 17.465z" class="cls-10" transform="translate(261.178 155.56)"/>
        <path id="Path_16542" d="M849.9 375.564l-9.812 4.786a9.7 9.7 0 0 1-12.992-4.471 9.728 9.728 0 0 1 4.471-12.992l9.784-4.787a9.734 9.734 0 0 1 13.02 4.471 9.734 9.734 0 0 1-4.471 12.994z" class="cls-10" transform="translate(304.49 131.503)"/>
        <path id="Path_16543" d="M708.6 389.547c-29.537 15.151-43.24 40.611-49.5 58.443a22.568 22.568 0 0 0 14.045 28.775c17.913 6.049 46.424 10.889 76.539-3.078 38.822-17.99 133.22-73.12 165.465-92.951a25.59 25.59 0 0 0 11.732-26.513l-1.894-10.047a27.775 27.775 0 0 0-6.471-13.151l-6.786-7.653a25.512 25.512 0 0 0-28.117-7.076C848.163 329.421 746.558 370 708.6 389.547z" class="cls-10" transform="translate(242.467 115.863)"/>
        <path id="Path_16544" fill="#fff" d="M708.6 389.547c-29.537 15.151-43.24 40.611-49.5 58.443a22.568 22.568 0 0 0 14.045 28.775c17.913 6.049 46.424 10.889 76.539-3.078 38.822-17.99 133.22-73.12 165.465-92.951a25.59 25.59 0 0 0 11.732-26.513l-1.894-10.047a27.775 27.775 0 0 0-6.471-13.151l-6.786-7.653a25.512 25.512 0 0 0-28.117-7.076C848.163 329.421 746.558 370 708.6 389.547z" opacity="0.7" transform="translate(242.467 115.863)"/>
        <path id="Path_16545" d="M785.743 233.848l4.129 6.181 3.866 6q3.814 6.023 7.5 12.152c4.919 8.153 9.653 16.438 14.151 25.039s8.785 17.439 12.624 26.933a153.317 153.317 0 0 1 5.261 15.071A97.582 97.582 0 0 1 837.006 343v.869a13.425 13.425 0 0 1 0 1.447 166.542 166.542 0 0 1-2.841 29.852 223.438 223.438 0 0 1-6.969 27.7c-2.841 8.944-6.129 17.6-9.758 26.065q-2.63 6.34-5.76 12.6c-1 2.078-2.026 4.155-3.1 6.233l-1.315 3.078-1.867 3.419a21.33 21.33 0 0 1-38.058-19.226l.472-1.289 2.289-4.891c.789-1.789 1.552-3.578 2.315-5.261q2.287-5.444 4.34-11.02a234.207 234.207 0 0 0 7.022-22.384 177.2 177.2 0 0 0 4.392-22.33 115 115 0 0 0 .868-21.278l.185 2.34a53.5 53.5 0 0 0-2.473-8.678 107.434 107.434 0 0 0-4.366-10.391c-3.339-7.154-7.365-14.465-11.678-21.725s-8.995-14.492-13.834-21.646q-3.63-5.26-7.391-10.521l-3.788-5.261-3.709-4.971-.394-.526A27.065 27.065 0 1 1 784.9 232.77z" class="cls-10" transform="translate(271.194 81.478)"/>
        <path id="Path_16546" d="M759.561 383.88a27.785 27.785 0 0 0-2.263 10.652 4.839 4.839 0 0 0 2.631 4.5c4.919 2.394 15.545 7.233 22.7 8.311a4.731 4.731 0 0 0 4.34-1.735 28.013 28.013 0 0 0 4.866-9.285 5.026 5.026 0 0 0-.526-4.024c-6.549-10.916-21.594-11.442-27.723-11.179a4.788 4.788 0 0 0-4.023 2.762z" class="cls-12" transform="translate(279.123 140.336)"/>
        <path id="Path_16547" d="M760.322 394.416l-4.734 17.228 28.59-.474a50.952 50.952 0 0 0 .184-11.2 14.123 14.123 0 0 0-16.6-12.2 9.2 9.2 0 0 0-7.444 6.654z" class="cls-22" transform="translate(278.493 142.714)"/>
        <path id="Path_16548" d="M767.633 426.79l9.943-1.841a8.233 8.233 0 0 0 6.734-8.26l-.263-11.888-28.459.474 2.446 14.755a8.206 8.206 0 0 0 9.6 6.759z" class="cls-22" transform="translate(278.493 149.083)"/>
        <path id="Path_16549" d="M749.467 275.519c-.578 9.074-7.311 16.518-15.1 16.623s-13.571-7.181-13.02-16.255 7.339-16.518 15.1-16.623 13.653 7.181 13.02 16.255z" class="cls-8" transform="translate(265.86 95.435)"/>
    </g>
</svg>
